<?xml version="1.0" encoding="utf-8"?>
<!-- Generator: Adobe Illustrator 16.0.0, SVG Export Plug-In . SVG Version: 6.00 Build 0)  -->
<!DOCTYPE svg PUBLIC "-//W3C//DTD SVG 1.1//EN" "http://www.w3.org/Graphics/SVG/1.1/DTD/svg11.dtd">
<svg version="1.1" xmlns="http://www.w3.org/2000/svg" xmlns:xlink="http://www.w3.org/1999/xlink" x="0px" y="0px" width="322px"
	 height="436px" viewBox="0 0 322 436" enable-background="new 0 0 322 436" xml:space="preserve">
<g id="_x31_200x800px">
	<g id="Layer_16">
	</g>
</g>
<g id="Layer_28">
</g>
<g id="Layer_19" display="none">
</g>
<g id="_x38_00x800px">
</g>
<g id="Layer_3">
</g>
<g id="Layer_5" display="none">
</g>
<g id="Layer_4">
</g>
<g id="Layer_15">
</g>
<g id="Layer_12">
</g>
<g id="Layer_14">
</g>
<g id="Layer_11" display="none">
</g>
<g id="Layer_18" display="none">
</g>
<g id="Layer_11_copy" display="none">
</g>
<g id="Layer_9" display="none">
</g>
<g id="Layer_8" display="none">
</g>
<g id="Layer_7" display="none">
	<g id="Layer_6">
	</g>
</g>
<g id="Layer_26" display="none">
</g>
<g id="Layer_22" display="none">
	<g id="Layer_10">
	</g>
	<g id="Layer_23">
	</g>
	<g id="Layer_24">
	</g>
</g>
<g id="Layer_13">
	<g>
		<path fill="#FFFFFF" stroke="#C1C1C1" stroke-miterlimit="10" d="M212.022,220.246c-0.257,0-0.518-0.019-0.779-0.056
			c-1.171-0.166-28.779-4.387-37.729-32.259c-0.929-2.893,0.662-5.989,3.555-6.918c2.893-0.931,5.989,0.664,6.918,3.555
			c6.867,21.385,28.583,24.7,28.802,24.731c3.007,0.427,5.1,3.21,4.673,6.218C217.072,218.263,214.718,220.246,212.022,220.246z"/>
	</g>
	<path fill="#28419E" d="M183.724,168.04c2.301,11.973,1.498,30.561-4.283,34.829c-6.435,4.747-17.616-9.546-21.726-21.01
		c-4.602-12.842-1.783-25.236,6.078-26.888C171.653,153.317,181.423,156.063,183.724,168.04z"/>
	<g>
		
			<linearGradient id="SVGID_1_" gradientUnits="userSpaceOnUse" x1="92.916" y1="202.9062" x2="198.7812" y2="202.9062" gradientTransform="matrix(0.7985 -0.602 0.602 0.7985 -109.3481 287.8247)">
			<stop  offset="0" style="stop-color:#FFFFFF;stop-opacity:0"/>
			<stop  offset="1" style="stop-color:#A5DDEC"/>
		</linearGradient>
		<path fill="url(#SVGID_1_)" d="M126.348,312.232l-14.353,114.813l50.382-109.022C162.377,318.023,142.562,308.715,126.348,312.232
			z"/>
		<path fill="#2E79A3" d="M137.067,316.91c0,0-0.331,7.729,0.928,10.264c1.065,2.146,6.993,2.166,8.677-0.588
			c0.779-1.278,2.211-9.132,2.211-9.132L137.067,316.91z"/>
		
			<linearGradient id="SVGID_2_" gradientUnits="userSpaceOnUse" x1="113.8809" y1="275.4961" x2="196.4326" y2="275.4961" gradientTransform="matrix(0.7788 -0.6271 0.6271 0.7788 -158.7939 226.6653)">
			<stop  offset="0" style="stop-color:#FFFFFF;stop-opacity:0"/>
			<stop  offset="1" style="stop-color:#A5DDEC"/>
		</linearGradient>
		<path fill="url(#SVGID_2_)" d="M131.309,305.191l-8.327,89.843l36.552-86.226C159.533,308.809,143.859,302.047,131.309,305.191z"
			/>
		<path fill="#3584BA" d="M109.896,295.699c0,0,8.489,33.52,9.51,34.69c1.021,1.172,4.998,1.669,6.545,0.68
			c1.547-0.991,2.996-10.634,2.996-10.634c10.287,1.387,10.144,1.227,17.897,1.252c8.811,0.025,7.197-0.5,7.119-0.102
			s1.881,5.855,2.612,7.538c0.73,1.684,5.166,1.672,6.952-0.182c1.787-1.854,6.911-30.626,6.812-30.067
			C170.239,299.435,109.896,295.699,109.896,295.699z"/>
		<path fill="#2E79A3" d="M160.083,330.338c0,0-1.461-3.989-2.3-6.66c-0.838-2.672-1.336-5.356-2.788-5.723
			c-1.452-0.364-13.1-0.067-16.17-0.581s-9.698-1.614-9.698-1.614l-0.18,4.676c0,0,3.478,0.59,7.422,0.928
			c1.629,0.141,3.401,0.514,5.021,0.581c2.406,0.101,4.555-0.139,5.993-0.143c1.268-0.005,2.739-0.099,3.605-0.155
			c2.212-0.142,2.812-0.136,2.812-0.136l2.262,6.646C156.062,328.156,156.572,330.828,160.083,330.338z"/>
		
			<ellipse transform="matrix(0.0526 -0.9986 0.9986 0.0526 -164.1316 421.5649)" fill="#F99F46" cx="140.118" cy="297.287" rx="8.489" ry="30.264"/>
		<path fill="#FCC088" d="M109.964,295.641c0.246-4.683,13.975-7.768,30.668-6.891c16.689,0.877,30.023,5.383,29.776,10.066"/>
	</g>
	<path fill="#28419E" d="M128.475,275.097c0,0,1.275,17.082,4.448,18.441s10.345,2.472,14.764-2.666
		c4.42-5.14,12.831-30.719,12.831-30.719S138.57,257.157,128.475,275.097z"/>
	<g>
		<path fill="#7DD8F4" d="M63.354,351.744c0,0,6.567,2.049,8.415,7.24c1.85,5.192,1.964,10.034,0.463,10.892
			c-1.502,0.858-3.467-4.332-6.818-6.52C62.066,361.171,63.354,351.744,63.354,351.744z"/>
		<path fill="#28419E" d="M37.228,365.312c0,0,2.629,11.785,5.864,16.706c3.234,4.914,5.534,3.685,5.407,1.456
			c-0.127-2.195-3.739-15.955-3.739-15.955L37.228,365.312z"/>
		<path fill="#28419E" d="M47.417,367.853c0,0,4.316,15.394,7.418,18.192c2.468,2.23,5.554,2.172,6.68,0.685
			c0.984-1.296,1.271-2.529-0.999-5.715c-2.832-3.978-4.592-13.848-4.592-13.848L47.417,367.853z"/>
		<path fill="#28419E" d="M58.91,365.806c0,0,3.066,5.485,3.819,9.992c0.574,3.45,1.329,8.54,3.523,9.018
			c2.197,0.477,4.392-4.235,3.467-7.854c-0.925-3.621-3.374-16.953-3.374-16.953L58.91,365.806z"/>
		<path fill="#7DD8F4" d="M41.644,338.708c0,0-10.497,29.36-0.692,30.467c14.93,1.685,13.429,1.127,23.471-5.874
			c7.813-5.447-1.957-20.647-9.029-24.455C48.319,335.038,41.644,338.708,41.644,338.708z"/>
		<g>
			<g>
				<path fill="#3584BA" d="M59.511,329.02c5.1,5.374,4.633,13.645-1.045,18.473c-5.676,4.829-14.413,4.386-19.513-0.987
					c-5.101-5.374-4.632-13.645,1.044-18.474C45.675,323.203,54.409,323.646,59.511,329.02z"/>
				<path fill="#2B7AA5" d="M42.052,348.94c0,0,8.986-0.294,13.143-3.83c3.752-3.191,5.219-6.61,4.79-10.692
					c-0.428-4.083-2.95-7.456-2.95-7.456s4.748,3.436,5.657,7.839c0.909,4.402,0.023,12.502-8.253,15.08
					C45.973,352.52,42.052,348.94,42.052,348.94z"/>
			</g>
			<path fill="#2BC5CC" d="M67.386,308.074c0,0,0.847,20.465-3.894,24.912c-4.741,4.445-17.273,6.207-22.685,4.188
				c-5.411-2.017-10.437-5.931-10.188-10.736c0.248-4.805,3.757-36.339,6.424-44.812c2.664-8.474,7.424-19.348,9.588-23.052
				c2.167-3.704,6.108-1.061,9.748-0.324c4.409,0.895,8.96,2.106,8.96,2.106s0.547-0.019,1.571,6.416
				C68.042,273.886,67.386,308.074,67.386,308.074z"/>
			<path fill="#28A3A0" d="M52.924,337.405c0,0,6.083-5.923,8.802-17.104c1.85-7.605,1.732-60.428,1.732-60.428l2.34,0.945
				c0,0,1.838,9.071,1.771,24.156c-0.067,15.082,0.469,37.694-1.78,43.451C63.538,334.185,61.803,335.836,52.924,337.405"/>
		</g>
	</g>
	<path fill="#2BC5CC" d="M138.477,273.249c0,0-6.068,9.42-15.477,9.407c-4.894-0.006-19.421-20.94-27.009-30.65
		c-7.587-9.711-34.899-46.43-33.988-54.32c0.91-7.891,3.339-13.05,13.96-17.904c10.621-4.855,73.439-26.705,80.115-25.795
		s15.476,4.856,17.904,17.905c2.428,13.049,0.304,87.7-3.338,93.467s-18.814-2.124-22.76-1.213
		C143.938,265.056,138.477,273.249,138.477,273.249z"/>
	<path fill="#28A3A0" d="M88.718,230.019l32.616,41.396c0,0,3.333,4.5,8.593,5.906c4.196,1.122,5.849-0.797,5.849-0.797
		s-4.525,7.538-12.775,6.132S85.25,238.5,85.25,238.5l-10.5-18.75c0,0-11.033-31.586-7.17-34.588S88.718,230.019,88.718,230.019z"/>
	
		<ellipse transform="matrix(-0.9934 0.1143 -0.1143 -0.9934 244.6284 329.947)" fill="#1C847F" cx="112.855" cy="171.986" rx="18.396" ry="9.454"/>
	<g>
		<g>
			<g>
				<path fill="#FFFFFF" d="M105.503,203.303c-0.466-1.388,0.283-2.887,1.671-3.353l43.965-14.714
					c1.385-0.466,2.887,0.285,3.351,1.668l-8.94,48.391c0,0-1.256,2.516-3.769,1.26
					C139.264,235.303,105.503,203.303,105.503,203.303z"/>
			</g>
		</g>
		<path fill="#3584BA" d="M114.973,212.219l37.042-11.932l2.475-13.383c0,0,0.345-3.658-4.636-2.022
			c-4.2,1.377-44.023,14.732-44.023,14.732s-2.816,2.407,2.165,6.603C112.566,210.071,114.973,212.219,114.973,212.219z"/>
	</g>
	<path fill="#28419E" d="M83.996,196.92c5.027,14.3,7.451,37.303,1.126,43.611c-7.038,7.019-23.411-8.503-30.568-21.844
		c-8.016-14.945-6.824-30.703,2.536-34.178C66.451,181.034,78.969,182.618,83.996,196.92z"/>
	<path fill="#FFFFFF" stroke="#C1C1C1" stroke-miterlimit="10" d="M63.458,259.853l5.146-52.022c0,0,1.226-5.483-0.929-6.813
		c-2.152-1.33-8.292-1.799-10.587,10.893C54.793,224.602,48.9,258.5,48.9,258.5S54.551,264.653,63.458,259.853z"/>
	<g>
		<path fill="#F47E14" d="M188.056,99.694c0,0,1.835-20.937-3.141-35.268c-4.978-14.331-15.482-36.607-22.077-43.578
			c-6.602-6.973-8.997-5.141-10.882,7.187c-1.884,12.326-5.948,35.102-5.948,35.102L188.056,99.694z"/>
		<path fill="#F47E14" d="M29.168,93.16c0,0,1.479-23.964,10.34-39.188c8.863-15.225,26.134-38.366,35.714-44.982
			c9.576-6.614,12.263-4.096,12.411,10.163c0.143,14.263,1.143,40.719,1.143,40.719L29.168,93.16z"/>
		<path fill="#2BC5CC" d="M171.395,138.046c0,0,1.068-18.471,1.729-26.274c0.662-7.805,1.844-21.211,1.844-21.211
			s18.736-2.095,24.086,4.896c5.352,6.987,3.279,22.592,1.714,29.426c-1.563,6.833-3.538,10.539-5.55,11.944
			C191.124,139.689,186.725,141.466,171.395,138.046z"/>
		<path fill="#3A96C9" d="M187.986,102.223c-1.938,41.81-37.337,74.131-79.062,72.198c-41.732-1.936-73.986-37.395-72.051-79.2
			c1.938-41.807,37.336-74.131,79.064-72.197C157.668,24.959,189.924,60.417,187.986,102.223z"/>
		<g>
			<path fill="#2B7AA5" d="M159.217,69.828l-75.129-2.64c-12.451-0.438-22.869,7.522-23.277,17.782l-1.858,46.673
				c-0.405,10.259,9.351,18.928,21.802,19.364l75.133,2.639c12.449,0.439,22.871-7.522,23.277-17.781l1.853-46.673
				C181.427,78.935,171.669,70.267,159.217,69.828z"/>
		</g>
		<g>
			<path fill="#FFFFFF" d="M160.766,71.968l-71.682-2.528c-11.879-0.419-21.804,6.716-22.172,15.942l-1.674,41.967
				c-0.367,9.224,8.959,17.037,20.838,17.457l71.686,2.53c11.879,0.42,21.803-6.718,22.17-15.943l1.672-41.966
				C181.975,80.2,172.647,72.385,160.766,71.968z"/>
		</g>
		<g>
			<path fill="none" stroke="#CAE6EF" stroke-width="7" stroke-miterlimit="10" d="M157.835,72.999l-71.681-2.528
				c-11.883-0.417-21.805,6.718-22.173,15.941l-1.675,41.969c-0.366,9.224,8.959,17.038,20.838,17.457l71.684,2.531
				c11.882,0.419,21.805-6.718,22.17-15.943l1.676-41.967C179.041,81.233,169.717,73.418,157.835,72.999z"/>
		</g>
		<path fill="#2BC5CC" d="M52.553,136.67c0,0,0.335-19.314,0.252-27.492c-0.082-8.176-0.28-22.228-0.28-22.228
			s-19.853-3.687-26.133,3.159c-6.275,6.845-5.308,23.256-4.183,30.495c1.128,7.24,2.941,11.253,4.979,12.882
			C31.333,136.797,35.895,139,52.553,136.67z"/>
		<path fill="#28419E" d="M102.326,100.42c-0.364,7.832-5.234,13.972-10.88,13.71c-5.644-0.263-9.928-6.824-9.564-14.659
			c0.364-7.832,5.232-13.971,10.88-13.707C98.404,86.023,102.688,92.587,102.326,100.42z"/>
		
			<ellipse transform="matrix(0.9989 0.0463 -0.0463 0.9989 4.9202 -6.9568)" fill="#28419E" cx="152.664" cy="102.753" rx="10.232" ry="14.2"/>
		<path fill="#FCFCFC" d="M100.287,95.548c-0.104,2.198-1.968,3.897-4.164,3.795c-2.201-0.102-3.9-1.966-3.797-4.163
			c0.101-2.201,1.967-3.899,4.165-3.799C98.689,91.483,100.389,93.349,100.287,95.548z"/>
		<path fill="#FCFCFC" d="M159.836,98.308c-0.105,2.199-1.969,3.898-4.168,3.796c-2.196-0.103-3.896-1.967-3.797-4.165
			c0.104-2.2,1.971-3.898,4.166-3.797C158.236,94.243,159.936,96.107,159.836,98.308z"/>
		<path fill="#2B7AA5" d="M42.205,69.785l10.615,2.91l52.309-49.407c0,0-5.002,0.329-7.254,0.837
			c-2.25,0.509-5.141,1.228-5.141,1.228L52.401,63.707l-6.526-1.035L42.205,69.785z"/>
		<path fill="#2B7AA5" d="M137.938,27.356l29.714,36.999l12.014-0.329l-2.272-4.618l-7.576-0.083l-23.809-28.532
			C146.008,30.793,139.375,27.75,137.938,27.356z"/>
		<path fill="#28419E" d="M84.037,15.676c-0.089,1.896-1.703,3.366-3.596,3.28c-1.9-0.093-3.365-1.701-3.279-3.601
			c0.088-1.896,1.695-3.362,3.595-3.275C82.655,12.166,84.124,13.777,84.037,15.676z"/>
		<circle fill="#28419E" cx="158.431" cy="28.078" r="3.249"/>
		<path fill="#28419E" d="M20.377,117.645c0.025,4.635,3.809,8.368,8.444,8.34l0,0c4.63-0.031,8.367-3.807,8.34-8.441L37.08,104.72
			c-0.027-4.632-3.807-8.364-8.443-8.338l0,0c-4.633,0.029-8.364,3.808-8.338,8.443L20.377,117.645z"/>
		<path fill="#28419E" d="M191.807,119.864c-0.146,3.158,2.297,5.839,5.456,5.984l0,0c3.159,0.147,5.842-2.297,5.987-5.454
			l0.404-8.742c0.148-3.16-2.297-5.841-5.457-5.987l0,0c-3.158-0.146-5.838,2.297-5.985,5.456L191.807,119.864z"/>
		
			<line fill="none" stroke="#FFFFFF" stroke-width="11" stroke-linecap="round" stroke-miterlimit="10" x1="12.232" y1="111.779" x2="25.893" y2="111.887"/>
		
			<line fill="none" stroke="#FFFFFF" stroke-width="9" stroke-linecap="round" stroke-miterlimit="10" x1="201.615" y1="115.938" x2="210.672" y2="116.357"/>
		<path fill="#28419E" d="M105.108,117.813c0,0,4.089,3.572,16.112,6.003c6.885,1.39,13.61-0.753,13.61-0.753
			S104.85,151.854,105.108,117.813z"/>
	</g>
	<g>
		<path fill="#7DD8F4" d="M278.923,169.181c0,0-1.519-24.126-3.302-29.374c-1.782-5.248,1.256-12.896,7.554-6.389
			s5.149,19.404,5.149,19.404s13.854-7.138,20.362-0.84s10.077,22.684,5.878,25.932c-4.198,3.248-18.502,8.4-24.992,8.4
			C283.081,186.314,278.923,169.181,278.923,169.181z"/>
		<path fill="#28419E" d="M313.426,153.61c0,0-6.429-3.611-7.555-3.314c-1.127,0.3-15.979,5.743-15.868,9.122
			c0.112,3.378,1.233,8.131,5.155,7.074c3.923-1.056,10.534-6.335,12.439-6.335c1.906,0,4.707,0.845,5.828,0.105
			C314.547,159.522,314.592,154.248,313.426,153.61z"/>
		<path fill="#28419E" d="M314.941,162.436c0,0-5.459-0.91-6.788-0.561c-1.329,0.351-10.608,4.662-11.532,5.83
			c-0.923,1.167-0.857,3.756,0.124,5.156c0.981,1.399,2.871,2.729,7.489,0.42c4.619-2.31,6.229-3.429,6.229-3.429
			s4.759,0.14,5.809-0.21C317.32,169.292,317.81,164.605,314.941,162.436z"/>
		<path fill="#28419E" d="M308.823,151.672c0,0-0.241-8.297-4.335-8.927s-14.527,3.149-16.553,7.138
			c-2.026,3.988-0.557,7.768,5.007,4.828C298.505,151.772,308.404,150.097,308.823,151.672z"/>
		<path fill="#F47E14" d="M300.971,163.634l4.418-2.628l-5.402-8.438l-4.24,1.987C295.746,154.556,296.266,159.1,300.971,163.634z"
			/>
		<path fill="#F47E14" d="M305.389,163.007l4.059,7.479l-2.502,1.398c0,0-2.263-1.882-3.265-3.907
			c-0.783-1.582-1.322-3.553-1.322-3.553L305.389,163.007z"/>
		<path fill="#F47E14" d="M299.604,152.224c0,0-1.462-5.258-1.658-6.569c-0.195-1.312-0.325-1.863-0.325-1.863l-3.508,1.364
			c0,0,0.236,3.87,0.646,5.222c0.524,1.732,1.555,2.873,1.555,2.873L299.604,152.224z"/>
	</g>
	<g>
		<g>
			<g>
				<circle fill="#3584BA" cx="280.995" cy="179.326" r="10.191"/>
				<path fill="#2B7AA5" d="M290.914,176.983c0,0-2.268,6.232-5.835,8.295c-3.221,1.863-6.087,2.067-9.015,0.783
					c-2.927-1.284-4.85-3.866-4.85-3.866s1.461,4.159,4.516,5.856c3.055,1.699,9.257,3.029,13.055-2.154
					C292.671,180.597,290.914,176.983,290.914,176.983z"/>
			</g>
		</g>
		<path fill="#2BC5CC" d="M212.084,209.314c0,0-0.234,6.081-0.008,9.895c0.305,5.12,0.807,6.003,6.9,4.695
			c8.368-1.799,13.163-2.457,31.261-9.371c6.966-2.661,23.84-10.117,27.893-16.733c4.053-6.617,0.771-16.315-1.274-20.587
			s-5.604-8.905-9.567-8.408c-3.963,0.496-47.281,31.626-49.961,33.685C214.649,204.547,212.296,206.347,212.084,209.314z"/>
		<path fill="#28A3A0" d="M211.979,215.762c0,0,1.086,5.269,3.619,5.4c2.533,0.135,34.529-9.645,48.736-17.874
			c14.207-8.23,15.759-14.116,15.759-14.116s1.208,6.477-4.356,11.435c-5.092,4.536-14.756,9.935-19.984,12.081
			s-15.903,5.901-21.575,7.803c-5.138,1.723-16.292,4.125-19.128,4.342C211.81,225.079,211.947,219.634,211.979,215.762z"/>
		<g>
			<path fill="#28419E" d="M268.516,190.976c-0.764,0.402-1.71,0.111-2.111-0.651l-4.687-8.864c-0.401-0.762-0.11-1.708,0.65-2.109
				l0,0c0.764-0.404,1.709-0.112,2.111,0.649l4.686,8.866C269.568,189.627,269.277,190.573,268.516,190.976L268.516,190.976z"/>
			<path fill="#28419E" d="M274.31,187.992c-0.764,0.401-1.709,0.109-2.111-0.652l-4.686-8.865
				c-0.402-0.761-0.111-1.708,0.649-2.109l0,0c0.763-0.404,1.708-0.112,2.11,0.649l4.688,8.867
				C275.362,186.643,275.07,187.588,274.31,187.992L274.31,187.992z"/>
		</g>
	</g>
	<path fill="#28A3A0" d="M63.729,257.123c0,0,2.521,2.689,2.896,5.002s1.023,16.562,0.949,17.875s-4.116-20.147-4.116-20.147
		L63.729,257.123z"/>
	<g>
		<path fill="#28419E" d="M52.781,331.757c-0.012,0.863-0.72,1.555-1.582,1.542l-10.026-0.127c-0.86-0.012-1.552-0.72-1.541-1.58
			l0,0c0.011-0.864,0.72-1.555,1.581-1.544l10.027,0.129C52.101,330.187,52.793,330.896,52.781,331.757L52.781,331.757z"/>
		<path fill="#28419E" d="M52.935,325.241c-0.014,0.863-0.722,1.553-1.583,1.542l-10.026-0.128c-0.861-0.011-1.554-0.72-1.542-1.58
			l0,0c0.011-0.863,0.719-1.553,1.58-1.542l10.029,0.127C52.253,323.671,52.943,324.38,52.935,325.241L52.935,325.241z"/>
	</g>
	<path fill="#F47E14" d="M40.461,376.406c0,0,2.977,0.156,4.164,0s2.128-1.038,2.128-1.038l1.008,4.24c0,0-1.927,1.481-3.649,1.454
		c-0.988-0.016-1.594,0-1.594,0S40.976,377.855,40.461,376.406z"/>
	<path fill="#F47E14" d="M49.75,375.285c0,0,3.209,0,4.084-0.265s3.548-1.605,3.548-1.605l1.809,5.188c0,0-1.565,1.48-3.086,1.938
		s-4.162,0.521-4.162,0.521S49.708,375.653,49.75,375.285z"/>
	<path fill="#F47E14" d="M61.488,371.427c0,0,3.305-0.943,4.117-1.456s2.309-1.662,2.309-1.662l1.184,5.901
		c0,0-1.701,1.498-2.951,1.811s-3.328,0.309-3.328,0.309S61.848,372.162,61.488,371.427z"/>
</g>
<g id="Layer_29">
</g>
<g id="Layer_21" display="none">
</g>
<g id="Layer_25" display="none">
</g>
<g id="Layer_20" display="none">
</g>
<g id="Layer_27">
	<circle fill="#28419E" cx="132.72" cy="272.752" r="2.954"/>
	<circle fill="#28419E" cx="167.093" cy="262.738" r="2.286"/>
</g>
</svg>
